<?xml version="1.0" encoding="utf-8"?>
<!-- Generator: Adobe Illustrator 19.2.1, SVG Export Plug-In . SVG Version: 6.00 Build 0)  -->
<svg version="1.1" id="Layer_1" xmlns:sketch="http://www.bohemiancoding.com/sketch/ns"
	 xmlns="http://www.w3.org/2000/svg" xmlns:xlink="http://www.w3.org/1999/xlink" x="0px" y="0px" viewBox="0 0 100 103"
	 style="enable-background:new 0 0 100 103;" xml:space="preserve">
<title>Shield-18</title>
<desc>Created with Sketch.</desc>
<g sketch:type="MSPage">
	<path sketch:type="MSShapeGroup" d="M48.8,93.9c1.1,0.7,2.6,0.7,3.7,0C58,90.7,64.1,86,69.6,79.4c18.8-22.5,16.2-50.9,14.8-60.1
		c-0.2-1-1-1.8-2.1-1.8c-4.4-0.1-10.7-0.7-17.7-3.5c-5.4-2.2-9.6-5-12.5-7.4c-0.8-0.7-2-0.7-2.8,0c-2.9,2.4-7.1,5.2-12.5,7.4
		c-7,2.8-13.4,3.5-17.7,3.5c-1.1,0-1.9,0.8-2.1,1.8c-1.4,9.2-3.9,37.6,14.8,60.1C37.3,86,43.4,90.7,48.8,93.9L48.8,93.9z M33.3,34.3
		l4.2-4.2l13.1,13.1l13.1-13.1l4.2,4.2L54.9,47.4l13.1,13.1l-4.2,4.2L50.7,51.7L37.6,64.8l-4.2-4.2l13.1-13.1L33.3,34.3L33.3,34.3z"
		/>
</g>
</svg>
