<?xml version="1.0" encoding="utf-8"?>
<!-- Generator: Adobe Illustrator 19.2.1, SVG Export Plug-In . SVG Version: 6.00 Build 0)  -->
<svg version="1.1" id="Layer_1" xmlns:sketch="http://www.bohemiancoding.com/sketch/ns"
	 xmlns="http://www.w3.org/2000/svg" xmlns:xlink="http://www.w3.org/1999/xlink" x="0px" y="0px" viewBox="0 0 100 103"
	 style="enable-background:new 0 0 100 103;" xml:space="preserve">
<title>Shield-19</title>
<desc>Created with Sketch.</desc>
<g sketch:type="MSPage">
	<path sketch:type="MSShapeGroup" d="M82.3,17.4c-4.4-0.1-10.7-0.7-17.7-3.5c-5.4-2.2-9.6-5-12.5-7.4c-0.8-0.7-2-0.7-2.8,0
		c-2.9,2.4-7.1,5.2-12.5,7.4c-7,2.8-13.4,3.5-17.7,3.5c-1.1,0-1.9,0.8-2.1,1.8c-1.4,9.2-3.9,37.6,14.8,60.1
		c5.5,6.6,11.7,11.3,17.1,14.5c1.1,0.7,2.6,0.7,3.7,0C58,90.7,64.1,86,69.6,79.4c18.8-22.5,16.2-50.9,14.8-60.1
		C84.3,18.2,83.4,17.5,82.3,17.4L82.3,17.4z M46.9,64.7L33,54.2l3.6-4.8l9.5,7.2l21.3-24.4l4.5,3.9L46.9,64.7L46.9,64.7z"/>
</g>
</svg>
