<?xml version="1.0" encoding="utf-8"?>
<!-- Generator: Adobe Illustrator 19.2.1, SVG Export Plug-In . SVG Version: 6.00 Build 0)  -->
<svg version="1.1" id="Layer_1" xmlns:sketch="http://www.bohemiancoding.com/sketch/ns"
	 xmlns="http://www.w3.org/2000/svg" xmlns:xlink="http://www.w3.org/1999/xlink" x="0px" y="0px" viewBox="0 0 72.7 103"
	 style="enable-background:new 0 0 72.7 103;" xml:space="preserve">
<title>trash_delete</title>
<description>Created with Sketch (http://www.bohemiancoding.com/sketch)</description>
<g sketch:type="MSPage">
	<path sketch:type="MSShapeGroup" d="M4.5,15.9c0,0-1.8,0-1.8,3.5C2.8,23,4.5,23,4.5,23h63.7c0,0,1.8,0,1.8-3.5s-1.8-3.5-1.8-3.5
		H4.5L4.5,15.9z M6.2,26.5h60.1l-7.1,63.7h-46L6.2,26.5z M31,12.3c-3.5,0-3.5,3.5-3.5,3.5h17.7c0,0,0-3.5-3.5-3.5H31L31,12.3z
		 M23.9,83.1h3.5l-3.5-56.7h-3.5L23.9,83.1z M48.7,26.4l-3.5,56.7h3.5l3.5-56.7H48.7L48.7,26.4z M34.5,26.4v56.7h3.5V26.4H34.5
		L34.5,26.4z"/>
</g>
</svg>
